<?xml version="1.0" encoding="UTF-8" standalone="no"?>
<!-- Created with Inkscape (http://www.inkscape.org/) -->
<svg
   xmlns:svg="http://www.w3.org/2000/svg"
   xmlns="http://www.w3.org/2000/svg"
   version="1.0"
   width="451.55695"
   height="637.09619"
   id="svg2"
   xml:space="preserve"><defs
     id="defs5"><clipPath
       id="clipPath17"><path
         d="M 0,0 L 963.78,0 L 963.78,595.276 L 0,595.276 L 0,0 z"
         id="path19" /></clipPath><clipPath
       id="clipPath61"><path
         d="M 0,0 L 963.78,0 L 963.78,595.276 L 0,595.276 L 0,0 z"
         id="path63" /></clipPath><clipPath
       id="clipPath75"><path
         d="M 0,0 L 963.78,0 L 963.78,595.276 L 0,595.276 L 0,0 z"
         id="path77" /></clipPath><clipPath
       id="clipPath149"><path
         d="M 0,0 L 963.78,0 L 963.78,595.276 L 0,595.276 L 0,0 z"
         id="path151" /></clipPath><clipPath
       id="clipPath167"><path
         d="M 0,0 L 963.78,0 L 963.78,595.276 L 0,595.276 L 0,0 z"
         id="path169" /></clipPath><clipPath
       id="clipPath181"><path
         d="M 0,0 L 963.78,0 L 963.78,595.276 L 0,595.276 L 0,0 z"
         id="path183" /></clipPath><clipPath
       id="clipPath255"><path
         d="M 0,0 L 963.78,0 L 963.78,595.276 L 0,595.276 L 0,0 z"
         id="path257" /></clipPath><clipPath
       id="clipPath299"><path
         d="M 0,0 L 963.78,0 L 963.78,595.276 L 0,595.276 L 0,0 z"
         id="path301" /></clipPath><clipPath
       id="clipPath411"><path
         d="M 0,0 L 963.78,0 L 963.78,595.276 L 0,595.276 L 0,0 z"
         id="path413" /></clipPath><clipPath
       id="clipPath497"><path
         d="M 0,0 L 963.78,0 L 963.78,595.276 L 0,595.276 L 0,0 z"
         id="path499" /></clipPath><clipPath
       id="clipPath585"><path
         d="M 0,0 L 963.78,0 L 963.78,595.276 L 0,595.276 L 0,0 z"
         id="path587" /></clipPath><clipPath
       id="clipPath773"><path
         d="M 0,0 L 963.78,0 L 963.78,595.276 L 0,595.276 L 0,0 z"
         id="path775" /></clipPath><clipPath
       id="clipPath835"><path
         d="M 14.173,506.393 L 217.593,506.393 L 217.593,581.102 L 14.173,581.102 L 14.173,506.393 z"
         id="path837" /></clipPath><clipPath
       id="clipPath1143"><path
         d="M 496.063,506.393 L 699.484,506.393 L 699.484,581.102 L 496.063,581.102 L 496.063,506.393 z"
         id="path1145" /></clipPath></defs><g
     transform="matrix(1.25,0,0,-1.25,-225.03545,837.96151)"
     id="g11"><path
       d="M 359.59661,311.12738 C 458.74864,311.12738 539.11934,391.50757 539.11934,490.6596 C 539.11934,589.80214 458.74864,670.18233 359.59661,670.18233 C 260.44459,670.18233 180.0644,589.80214 180.0644,490.6596 C 180.0644,391.50757 260.44459,311.12738 359.59661,311.12738"
       id="path67"
       style="fill:#ffffff;fill-opacity:1;fill-rule:nonzero;stroke:none" /><path
       d="M 313.96563,534.0966 C 328.27926,548.38177 342.88694,561.29155 357.30491,572.64569 C 311.2338,608.52939 269.74419,624.4271 255.12702,608.87087 C 240.92721,593.74148 256.00917,553.26681 289.69221,508.16321 C 297.24268,516.83297 305.34331,525.50272 313.96563,534.0966"
       id="path105"
       style="fill:#305790;fill-opacity:1;fill-rule:nonzero;stroke:none" /><path
       d="M 430.08912,507.15965 C 465.27088,552.71854 480.73226,593.57262 465.29933,608.06649 C 450.05612,622.39908 408.85107,606.86182 363.17833,572.42944 C 376.43909,561.74874 389.87056,549.68317 403.07439,536.44141 C 412.73064,526.76619 421.74187,516.95819 430.08912,507.15965"
       id="path109"
       style="fill:#305790;fill-opacity:1;fill-rule:nonzero;stroke:none" /><path
       d="M 359.25798,406.56583 C 308.28285,367.03024 260.37156,347.72722 237.42611,359.16675 C 269.48713,329.38224 312.41854,311.14163 359.63741,311.14163 C 406.19228,311.14163 448.61147,328.85106 480.51124,357.90517 C 457.52785,346.80713 409.93905,366.45162 359.25798,406.56583"
       id="path113"
       style="fill:#305790;fill-opacity:1;fill-rule:nonzero;stroke:none" /><path
       d="M 275.52845,491.1244 C 235.90749,542.25129 216.59499,590.27642 228.23371,613.14597 C 198.3259,581.06598 180.02836,538.06818 180.02836,490.75447 C 180.02836,444.09524 197.82317,401.60017 226.99111,369.66245 C 215.68438,392.57945 235.30989,440.32949 275.52845,491.1244"
       id="path117"
       style="fill:#305790;fill-opacity:1;fill-rule:nonzero;stroke:none" /><path
       d="M 492.389,611.73168 C 503.68624,588.79573 484.06072,541.07413 443.84217,490.28872 C 483.26395,439.42742 502.55746,391.63943 491.31713,368.63707 C 521.0542,400.68861 539.25689,443.58208 539.25689,490.74402 C 539.25689,537.35581 521.50001,579.80347 492.389,611.73168"
       id="path121"
       style="fill:#305790;fill-opacity:1;fill-rule:nonzero;stroke:none" /><path
       d="M 405.39834,447.30988 C 395.72312,437.66312 385.92458,428.65188 376.12606,420.31412 C 421.69444,385.1229 462.55802,369.65202 477.05187,385.09443 C 491.38447,400.35662 475.8472,441.55217 441.40533,487.22491 C 430.72464,473.95467 418.64959,460.54217 405.39834,447.30988"
       id="path125"
       style="fill:#305790;fill-opacity:1;fill-rule:nonzero;stroke:none" /><path
       d="M 277.74711,488.32712 C 241.86344,442.24651 225.95623,400.75691 241.53145,386.15871 C 256.66083,371.94941 297.1355,387.03136 342.2296,420.72389 C 333.55984,428.27435 324.89957,436.38448 316.3057,444.98783 C 302.01105,459.31095 289.10126,473.92812 277.74711,488.32712"
       id="path129"
       style="fill:#305790;fill-opacity:1;fill-rule:nonzero;stroke:none" /><path
       d="M 360.11072,574.85962 C 411.07637,614.37624 458.99714,633.67926 481.92363,622.25869 C 449.85312,652.1001 406.89325,670.36921 359.63644,670.36921 C 312.92032,670.36921 270.38729,652.51748 238.44011,623.30211 C 261.27172,634.82701 309.1356,615.20148 360.11072,574.85962"
       id="path133"
       style="fill:#305790;fill-opacity:1;fill-rule:nonzero;stroke:none" /><path
       d="M 427.83821,504.26941 C 419.55737,514.12485 410.51767,524.07516 400.76656,533.90215 C 387.30664,547.47591 373.66648,559.68374 360.3678,570.26009 C 345.91188,559.17153 331.05757,546.24279 316.48783,531.77739 C 307.64734,523.02226 299.39494,514.1628 291.77808,505.39819 C 303.13223,490.47748 316.44988,475.11095 331.39905,460.03849 C 340.63793,450.71423 349.96219,442.06344 359.21057,434.11459 C 369.56873,442.71794 380.01227,452.175 390.36098,462.40987 C 404.4185,476.35356 416.9868,490.49645 427.83821,504.26941"
       id="path137"
       style="fill:#305790;fill-opacity:1;fill-rule:nonzero;stroke:none" /><path
       d="M 365.44633,507.01072 L 365.44633,507.01072 C 363.7674,507.27631 363.14135,507.97825 362.96113,509.28725 L 363.92866,549.45838 L 355.89442,549.45838 L 356.85246,509.28725 L 356.85246,509.27775 L 356.85246,509.28725 C 356.67224,507.90236 355.97978,507.13402 354.34829,507.01072 L 314.67989,508.24384 L 314.67989,500.20962 L 354.34829,501.45222 L 354.37674,501.44273 L 354.34829,501.44273 C 355.89442,501.51862 356.83349,500.73131 356.85246,499.17569 L 355.88493,458.98559 L 363.92866,458.98559 L 362.96113,499.17569 L 362.96113,499.1662 C 362.98958,500.57954 363.92866,501.43325 365.44633,501.44273 L 405.14318,500.20962 L 405.14318,508.24384 L 365.44633,507.01072 z"
       id="path141"
       style="fill:#ffffff;fill-opacity:1;fill-rule:nonzero;stroke:none" /><path
       d="M 299.11815,231.02856 C 291.20553,231.02856 271.81841,231.07638 271.81841,231.07638 L 271.81841,161.7194 L 266.19272,161.8947 C 258.19244,161.8947 256.51907,167.74352 256.51907,175.2099 L 256.51907,231.07638 C 256.51907,231.07638 239.37108,230.47078 233.34696,228.45477 C 232.56606,226.54235 231.23533,225.23554 231.23533,225.23554 C 229.78508,223.58608 226.21524,222.03223 226.21524,222.03223 L 228.75716,236.12037 L 299.12612,236.12037 L 299.11815,231.02856 z"
       id="path81"
       style="fill:#305790;fill-opacity:1;fill-rule:nonzero;stroke:none" /><path
       d="M 360.94739,228.33205 C 360.47725,229.07312 358.72421,230.61102 334.05404,231.27239 L 334.22933,203.40689 C 334.22933,203.40689 349.57647,203.28736 354.19816,202.96863 C 359.38559,202.61006 360.34975,202.42678 361.7761,200.5781 C 362.76418,199.34301 363.32994,197.94853 363.32994,197.94853 L 334.22933,197.38277 L 334.22933,185.73296 C 334.22933,174.21864 334.0859,169.51727 342.34117,167.78813 C 348.18201,166.58491 359.99914,167.20644 363.89569,167.93156 C 370.15887,169.13478 370.70071,166.1068 370.70071,166.1068 C 370.70071,166.1068 363.4654,161.04686 344.97074,161.04686 C 327.2251,161.04686 320.38026,163.65252 319.99776,175.86808 C 319.59137,189.11954 319.36029,195.66958 319.36029,229.9098 L 316.04544,231.92581 C 313.20868,233.38402 312.65888,236.11718 312.65888,236.11718 L 367.1229,236.11718 L 367.1229,220.84972 C 367.1229,220.84972 364.84394,221.50314 363.54508,223.41555 C 362.23828,225.32 360.94739,228.33205 360.94739,228.33205"
       id="path85"
       style="fill:#305790;fill-opacity:1;fill-rule:nonzero;stroke:none" /><path
       d="M 434.14912,225.81086 C 431.23268,228.05794 425.19263,232.52822 415.79789,231.51623 C 410.92121,230.99829 402.01255,228.52011 402.41097,221.37245 C 402.80143,214.65509 406.75374,213.53951 420.41159,207.81024 C 434.93798,201.72237 446.11765,194.69425 445.83876,181.33921 C 445.59971,168.69334 432.70683,160.71698 416.43536,160.71698 C 403.59029,160.71698 396.54622,163.54575 388.1794,166.44626 C 388.1794,166.44626 387.5499,171.29105 397.52634,169.17941 C 412.81771,165.93628 414.14843,166.56579 419.55897,167.33872 C 426.99349,168.41445 433.56743,175.35492 429.89399,182.20776 C 427.22457,187.18801 422.28416,189.1323 411.87743,193.51492 C 400.85714,198.11269 390.08384,203.03716 389.70137,214.89415 C 389.27108,227.36469 400.24357,236.28134 414.85761,237.07817 C 423.91769,237.56425 433.89412,235.36498 440.49196,231.67559 L 440.32463,218.65523 C 437.98988,219.28473 435.81451,220.86248 434.14912,225.81086"
       id="path89"
       style="fill:#305790;fill-opacity:1;fill-rule:nonzero;stroke:none" /><path
       d="M 478.41916,188.66933 C 484.95325,171.34603 500.02149,161.93534 514.34071,167.87978 C 528.79541,173.90388 529.79942,190.76502 523.95858,208.23177 C 517.65557,227.14078 503.47182,236.33631 488.76215,230.19268 C 474.2995,224.1845 471.90101,205.87312 478.41916,188.66933 M 541.27391,199.17965 C 541.27391,175.22663 524.77933,160.69227 500.5235,160.69227 C 475.94895,160.69227 461.55802,177.05937 461.55802,197.87285 C 461.55802,219.77798 477.42312,237.30049 501.89407,237.30049 C 526.29331,237.30049 541.27391,219.35565 541.27391,199.17965"
       id="path93"
       style="fill:#305790;fill-opacity:1;fill-rule:nonzero;stroke:none" /><path
       d="M 204.12762,161.85725 C 197.96804,161.85725 194.22289,163.23579 194.22289,172.18431 C 194.22289,181.13283 194.30259,230.16241 194.30259,230.16241 L 189.9837,232.44934 C 188.58127,233.62866 186.97165,234.87173 186.87604,236.08292 L 209.46646,236.08292 L 209.46646,161.92897 L 204.12762,161.85725 z"
       id="path155"
       style="fill:#305790;fill-opacity:1;fill-rule:nonzero;stroke:none" /></g></svg>